<svg xmlns="http://www.w3.org/2000/svg" viewBox="0 0 520 460" role="img" aria-label="GDPR data protection shield">
  <defs>
    <linearGradient id="gs" x1="0" y1="0" x2="1" y2="1">
      <stop offset="0" stop-color="#052f57"/>
      <stop offset="1" stop-color="#04707d"/>
    </linearGradient>
  </defs>
  <path d="M260 50 L430 110 V250 C430 350 350 405 260 430 C170 405 90 350 90 250 V110 Z" fill="url(#gs)"/>
  <path d="M260 80 L402 130 V250 C402 335 335 382 260 404 C185 382 118 335 118 250 V130 Z" fill="#ffffff" opacity=".08"/>
  <!-- lock -->
  <rect x="205" y="220" width="110" height="90" rx="14" fill="#ffffff"/>
  <path d="M225 220 V195 a35 35 0 0 1 70 0 V220" fill="none" stroke="#ffffff" stroke-width="14"/>
  <circle cx="260" cy="258" r="14" fill="#04707d"/>
  <rect x="254" y="262" width="12" height="26" rx="6" fill="#04707d"/>
  <!-- EU stars ring -->
  <g fill="#ffd34d">
    <circle cx="260" cy="120" r="5"/>
    <circle cx="300" cy="132" r="5"/>
    <circle cx="220" cy="132" r="5"/>
    <circle cx="330" cy="162" r="5"/>
    <circle cx="190" cy="162" r="5"/>
  </g>
</svg>
