<svg xmlns="http://www.w3.org/2000/svg" viewBox="0 0 560 440" role="img" aria-label="International global reach">
  <defs>
    <linearGradient id="gg" x1="0" y1="0" x2="1" y2="1">
      <stop offset="0" stop-color="#052f57"/>
      <stop offset="1" stop-color="#04707d"/>
    </linearGradient>
  </defs>
  <circle cx="280" cy="220" r="170" fill="url(#gg)"/>
  <g fill="none" stroke="#ffffff" stroke-width="2" opacity=".35">
    <ellipse cx="280" cy="220" rx="170" ry="60"/>
    <ellipse cx="280" cy="220" rx="170" ry="120"/>
    <ellipse cx="280" cy="220" rx="90" ry="170"/>
    <line x1="110" y1="220" x2="450" y2="220"/>
    <line x1="280" y1="50" x2="280" y2="390"/>
  </g>
  <!-- location pins -->
  <g>
    <circle cx="220" cy="150" r="10" fill="#ffd34d"/>
    <circle cx="330" cy="180" r="10" fill="#ffffff"/>
    <circle cx="250" cy="270" r="10" fill="#0aa3b0"/>
    <circle cx="360" cy="290" r="10" fill="#ffd34d"/>
    <circle cx="180" cy="240" r="10" fill="#ffffff"/>
  </g>
  <g stroke="#ffd34d" stroke-width="2.5" stroke-dasharray="5 7" fill="none" opacity=".9">
    <path d="M220 150 Q300 120 330 180"/>
    <path d="M330 180 Q300 250 250 270"/>
    <path d="M250 270 Q320 300 360 290"/>
    <path d="M220 150 Q170 200 180 240"/>
  </g>
</svg>
