<svg xmlns="http://www.w3.org/2000/svg" viewBox="0 0 640 460" role="img" aria-label="Business growth dashboard">
  <defs>
    <linearGradient id="g1" x1="0" y1="0" x2="1" y2="1">
      <stop offset="0" stop-color="#052f57"/>
      <stop offset="1" stop-color="#04707d"/>
    </linearGradient>
    <linearGradient id="g2" x1="0" y1="1" x2="1" y2="0">
      <stop offset="0" stop-color="#04707d"/>
      <stop offset="1" stop-color="#0aa3b0"/>
    </linearGradient>
  </defs>
  <rect x="40" y="40" width="560" height="380" rx="22" fill="#ffffff" stroke="#e2e8f0"/>
  <rect x="40" y="40" width="560" height="60" rx="22" fill="url(#g1)"/>
  <rect x="40" y="78" width="560" height="22" fill="url(#g1)"/>
  <circle cx="70" cy="70" r="7" fill="#ffffff" opacity=".9"/>
  <circle cx="92" cy="70" r="7" fill="#ffffff" opacity=".55"/>
  <circle cx="114" cy="70" r="7" fill="#ffffff" opacity=".35"/>
  <rect x="430" y="62" width="140" height="16" rx="8" fill="#ffffff" opacity=".5"/>
  <!-- bars -->
  <rect x="90"  y="300" width="46" height="80"  rx="8" fill="#04707d" opacity=".35"/>
  <rect x="160" y="260" width="46" height="120" rx="8" fill="#04707d" opacity=".5"/>
  <rect x="230" y="210" width="46" height="170" rx="8" fill="#04707d" opacity=".7"/>
  <rect x="300" y="170" width="46" height="210" rx="8" fill="url(#g2)"/>
  <rect x="370" y="130" width="46" height="250" rx="8" fill="url(#g1)"/>
  <!-- growth arrow -->
  <path d="M95 320 C 190 300, 300 250, 470 140" fill="none" stroke="#052f57" stroke-width="6" stroke-linecap="round"/>
  <path d="M448 132 L486 128 L470 162 Z" fill="#04707d"/>
  <circle cx="95" cy="320" r="8" fill="#04707d"/>
  <circle cx="245" cy="250" r="8" fill="#04707d"/>
  <circle cx="360" cy="190" r="8" fill="#04707d"/>
</svg>
